<svg width="30" height="30" viewBox="0 0 30 30" fill="none" xmlns="http://www.w3.org/2000/svg">
<path d="M14.9953 7.30355C10.7361 7.30355 7.29882 10.7409 7.29882 15C7.29882 19.2591 10.7361 22.6964 14.9953 22.6964C19.2544 22.6964 22.6917 19.2591 22.6917 15C22.6917 10.7409 19.2544 7.30355 14.9953 7.30355ZM14.9953 20.0021C12.2409 20.0021 9.99314 17.7544 9.99314 15C9.99314 12.2456 12.2409 9.99787 14.9953 9.99787C17.7496 9.99787 19.9974 12.2456 19.9974 15C19.9974 17.7544 17.7496 20.0021 14.9953 20.0021ZM23.0069 5.19462C22.0125 5.19462 21.2095 5.99767 21.2095 6.99209C21.2095 7.98651 22.0125 8.78955 23.0069 8.78955C24.0014 8.78955 24.8044 7.99026 24.8044 6.99209C24.8047 6.75596 24.7584 6.52209 24.6682 6.30388C24.578 6.08567 24.4456 5.8874 24.2786 5.72043C24.1116 5.55346 23.9134 5.42107 23.6951 5.33085C23.4769 5.24062 23.2431 5.19433 23.0069 5.19462ZM29.9979 15C29.9979 12.9286 30.0167 10.876 29.9003 8.80832C29.784 6.40669 29.2361 4.27525 27.48 2.51907C25.72 0.759128 23.5923 0.215011 21.1907 0.098682C19.1193 -0.0176466 17.0667 0.00111617 14.999 0.00111617C12.9276 0.00111617 10.875 -0.0176466 8.80734 0.098682C6.40572 0.215011 4.27428 0.762881 2.51809 2.51907C0.758152 4.27901 0.214034 6.40669 0.0977055 8.80832C-0.0186231 10.8797 0.000139607 12.9324 0.000139607 15C0.000139607 17.0676 -0.0186231 19.124 0.0977055 21.1917C0.214034 23.5933 0.761904 25.7247 2.51809 27.4809C4.27803 29.2409 6.40572 29.785 8.80734 29.9013C10.8787 30.0176 12.9314 29.9989 14.999 29.9989C17.0704 29.9989 19.1231 30.0176 21.1907 29.9013C23.5923 29.785 25.7238 29.2371 27.48 27.4809C29.2399 25.721 29.784 23.5933 29.9003 21.1917C30.0204 19.124 29.9979 17.0714 29.9979 15ZM26.6957 23.8485C26.4217 24.5314 26.0915 25.0418 25.5624 25.5671C25.0333 26.0962 24.5267 26.4265 23.8438 26.7004C21.8699 27.4847 17.183 27.3083 14.9953 27.3083C12.8075 27.3083 8.11687 27.4847 6.14304 26.7042C5.46008 26.4302 4.94973 26.1 4.42438 25.5709C3.89527 25.0418 3.56505 24.5352 3.29111 23.8522C2.51059 21.8746 2.68696 17.1877 2.68696 15C2.68696 12.8123 2.51059 8.1216 3.29111 6.14777C3.56505 5.46481 3.89527 4.95446 4.42438 4.42911C4.95349 3.90375 5.46008 3.56978 6.14304 3.29584C8.11687 2.51532 12.8075 2.69168 14.9953 2.69168C17.183 2.69168 21.8737 2.51532 23.8475 3.29584C24.5305 3.56978 25.0408 3.9 25.5662 4.42911C26.0953 4.95822 26.4255 5.46481 26.6994 6.14777C27.48 8.1216 27.3036 12.8123 27.3036 15C27.3036 17.1877 27.48 21.8746 26.6957 23.8485Z" fill="#B9C5E1"/>
</svg>
